<?xml version="1.0" encoding="UTF-8" standalone="no"?>
<!-- Created with Inkscape (http://www.inkscape.org/) -->

<svg
   xmlns:dc="http://purl.org/dc/elements/1.1/"
   xmlns:cc="http://creativecommons.org/ns#"
   xmlns:rdf="http://www.w3.org/1999/02/22-rdf-syntax-ns#"
   xmlns:svg="http://www.w3.org/2000/svg"
   xmlns="http://www.w3.org/2000/svg"
   xmlns:sodipodi="http://sodipodi.sourceforge.net/DTD/sodipodi-0.dtd"
   xmlns:inkscape="http://www.inkscape.org/namespaces/inkscape"
   width="1252"
   height="744.09448"
   id="svg2"
   version="1.1"
   inkscape:version="0.48.3.1 r9886"
   sodipodi:docname="New document 1">
  <defs
     id="defs4" />
  <sodipodi:namedview
     id="base"
     pagecolor="#ffffff"
     bordercolor="#666666"
     borderopacity="1.0"
     inkscape:pageopacity="0.0"
     inkscape:pageshadow="2"
     inkscape:zoom="1.1346482"
     inkscape:cx="1101.7452"
     inkscape:cy="149.00236"
     inkscape:document-units="px"
     inkscape:current-layer="layer1"
     showgrid="true"
     width="1252px"
     inkscape:snap-center="false"
     inkscape:snap-grids="true"
     inkscape:snap-to-guides="false"
     inkscape:object-nodes="true"
     inkscape:snap-nodes="true"
     inkscape:window-width="1301"
     inkscape:window-height="744"
     inkscape:window-x="65"
     inkscape:window-y="24"
     inkscape:window-maximized="1">
    <inkscape:grid
       type="xygrid"
       id="grid3769"
       empspacing="5"
       visible="true"
       enabled="true"
       snapvisiblegridlinesonly="true" />
  </sodipodi:namedview>
  <metadata
     id="metadata7">
    <rdf:RDF>
      <cc:Work
         rdf:about="">
        <dc:format>image/svg+xml</dc:format>
        <dc:type
           rdf:resource="http://purl.org/dc/dcmitype/StillImage" />
        <dc:title></dc:title>
      </cc:Work>
    </rdf:RDF>
  </metadata>
  <g
     inkscape:label="Layer 1"
     inkscape:groupmode="layer"
     id="layer1"
     transform="translate(0,-308.2677)">
    <path
       style="fill:none;stroke:#000000;stroke-width:1.15822041px;stroke-linecap:butt;stroke-linejoin:miter;stroke-opacity:1"
       d="m 435.36926,495.07154 c 164.98838,61.53805 164.98838,61.53805 164.98838,61.53805"
       id="path2993"
       inkscape:connector-curvature="0" />
    <path
       style="fill:none;stroke:#000000;stroke-width:0.98086023px;stroke-linecap:butt;stroke-linejoin:miter;stroke-opacity:1"
       d="m 502.30547,629.00818 c 0,0 0,0 115.59964,-56.8133 l 109.48326,-1.2218 0.61163,-0.6109"
       id="path2997"
       inkscape:connector-curvature="0" />
    <rect
       style="fill:#000080"
       id="rect3771"
       width="5"
       height="30"
       x="623"
       y="540.36218" />
    <rect
       style="fill:#000080"
       id="rect3771-2"
       width="5"
       height="30"
       x="638"
       y="540.36218" />
    <rect
       style="fill:#000080"
       id="rect3771-2-5"
       width="5"
       height="30"
       x="654"
       y="540.36218" />
    <rect
       style="fill:#000080"
       id="rect3771-2-5-0"
       width="5"
       height="30"
       x="668"
       y="540.36218" />
    <rect
       style="fill:#000080"
       id="rect3771-2-5-0-6"
       width="5"
       height="30"
       x="684"
       y="540.36218" />
    <path
       sodipodi:type="arc"
       style="fill:#ff0000"
       id="path3847"
       sodipodi:cx="60"
       sodipodi:cy="-15.905518"
       sodipodi:rx="10"
       sodipodi:ry="10"
       d="m 70,-15.905518 a 10,10 0 1 1 -20,0 10,10 0 1 1 20,0 z"
       transform="translate(388,506.2677)" />
    <path
       sodipodi:type="arc"
       style="fill:#008000"
       id="path3849"
       sodipodi:cx="320"
       sodipodi:cy="74.094482"
       sodipodi:rx="10"
       sodipodi:ry="10"
       d="m 330,74.094482 a 10,10 0 1 1 -20,0 10,10 0 1 1 20,0 z"
       transform="translate(398,486.2677)" />
    <path
       style="fill:none;stroke:#000000;stroke-width:0.93446815px;stroke-linecap:butt;stroke-linejoin:miter;stroke-opacity:1"
       d="m 728,570.36218 c 172,132 172,132 172,132"
       id="path3851"
       inkscape:connector-curvature="0" />
    <path
       style="fill:none;stroke:#000000;stroke-width:1px;stroke-linecap:butt;stroke-linejoin:miter;stroke-opacity:1"
       d="m 938,702.36218 c 90,0 90,0 90,0"
       id="path3865"
       inkscape:connector-curvature="0" />
    <rect
       style="fill:#000080"
       id="rect3771-7"
       width="5"
       height="30"
       x="1015"
       y="670.36218" />
    <path
       style="fill:none;stroke:#000000;stroke-width:0.70710677px;stroke-linecap:butt;stroke-linejoin:miter;stroke-opacity:1"
       d="m 1028,700.36218 0,-10 10,0"
       id="path3885"
       inkscape:connector-curvature="0" />
    <path
       style="fill:none;stroke:#000000;stroke-width:0.70710677px;stroke-linecap:butt;stroke-linejoin:miter;stroke-opacity:1"
       d="m 1038,690.36218 0,-10 10,0"
       id="path3885-8"
       inkscape:connector-curvature="0" />
    <path
       style="fill:none;stroke:#000000;stroke-width:0.70710671px;stroke-linecap:butt;stroke-linejoin:miter;stroke-opacity:1"
       d="m 1048,680.36218 0,-10 10,0"
       id="path3885-5"
       inkscape:connector-curvature="0" />
    <path
       style="fill:none;stroke:#000000;stroke-width:0.70710677px;stroke-linecap:butt;stroke-linejoin:miter;stroke-opacity:1"
       d="m 1058,670.36218 0,-10 10,0"
       id="path3885-7"
       inkscape:connector-curvature="0" />
    <rect
       style="fill:#000080"
       id="rect3771-7-1"
       width="5"
       height="30"
       x="1028"
       y="660.36218" />
    <rect
       style="fill:#000080"
       id="rect3771-7-17"
       width="5"
       height="30"
       x="1038"
       y="650.36218" />
    <rect
       style="fill:#000080"
       id="rect3771-7-1-7"
       width="5"
       height="30"
       x="1048"
       y="640.36218" />
    <path
       style="fill:none;stroke:#000000;stroke-width:0.70710677px;stroke-linecap:butt;stroke-linejoin:miter;stroke-opacity:1"
       d="m 1068,660.36218 0,-10 10,0"
       id="path3885-8-4"
       inkscape:connector-curvature="0" />
    <path
       style="fill:none;stroke:#000000;stroke-width:0.70710671px;stroke-linecap:butt;stroke-linejoin:miter;stroke-opacity:1"
       d="m 1078,650.36218 0,-10 10,0"
       id="path3885-5-7"
       inkscape:connector-curvature="0" />
    <rect
       style="fill:#000080"
       id="rect3771-7-1-1"
       width="5"
       height="30"
       x="1058"
       y="630.36218" />
    <rect
       style="fill:#000080"
       id="rect3771-7-17-2"
       width="5"
       height="30"
       x="1068"
       y="620.36218" />
    <path
       style="fill:none;stroke:#000000;stroke-width:1px;stroke-linecap:butt;stroke-linejoin:miter;stroke-opacity:1"
       d="m 424,450.36218 c 170,-70 170,-70 170,-70"
       id="path3996"
       inkscape:connector-curvature="0" />
    <rect
       style="fill:#000080"
       id="rect3771-7-6-1"
       width="5"
       height="30"
       x="940"
       y="672.36218" />
    <rect
       style="fill:#000080"
       id="rect3771-7-6"
       width="5"
       height="30"
       x="955"
       y="672.36218" />
    <rect
       style="fill:#000080"
       id="rect3771-7-6-5"
       width="5"
       height="30"
       x="970"
       y="672.36218" />
    <rect
       style="fill:#000080"
       id="rect3771-7-6-8"
       width="5"
       height="30"
       x="985"
       y="672.36218" />
    <rect
       style="fill:#000080"
       id="rect3771-7-6-3"
       width="5"
       height="30"
       x="1000"
       y="672.36218" />
    <rect
       style="fill:#008000"
       id="rect4101"
       width="190"
       height="10"
       x="890"
       y="846.36218" />
    <path
       sodipodi:type="arc"
       style="fill:#000000"
       id="path4116"
       sodipodi:cx="955"
       sodipodi:cy="589.09448"
       sodipodi:rx="5"
       sodipodi:ry="5"
       d="m 960,589.09448 a 5,5 0 1 1 -10,0 5,5 0 1 1 10,0 z"
       transform="translate(31,262.2677)" />
    <rect
       style="fill:#c83737"
       id="rect4125"
       width="30"
       height="10"
       x="866"
       y="836.36218" />
    <path
       sodipodi:type="arc"
       style="fill:#222b00"
       id="path4127"
       sodipodi:cx="875"
       sodipodi:cy="579.09448"
       sodipodi:rx="5"
       sodipodi:ry="5"
       d="m 880,579.09448 a 5,5 0 1 1 -10,0 5,5 0 1 1 10,0 z"
       transform="translate(-4,262.2677)" />
    <g
       id="g4240"
       transform="matrix(0.84870328,0,0,0.86956503,154.61804,67.69958)">
      <path
         transform="matrix(0.49999994,0.50000033,-0.49999994,0.50000033,802.04727,60.314396)"
         d="m 1090,574.09448 c 0,5.52285 -4.4772,10 -10,10 -5.5228,0 -10,-4.47715 -10,-10 0,-5.52285 4.4772,-10 10,-10 5.5228,0 10,4.47715 10,10 z"
         sodipodi:ry="10"
         sodipodi:rx="10"
         sodipodi:cy="574.09448"
         sodipodi:cx="1080"
         id="path4120-9"
         style="fill:#c83737"
         sodipodi:type="arc" />
      <path
         transform="matrix(0.5,0.50000045,-0.5,0.50000045,816.04724,60.314201)"
         d="m 1090,574.09448 c 0,5.52285 -4.4772,10 -10,10 -5.5228,0 -10,-4.47715 -10,-10 0,-5.52285 4.4772,-10 10,-10 5.5228,0 10,4.47715 10,10 z"
         sodipodi:ry="10"
         sodipodi:rx="10"
         sodipodi:cy="574.09448"
         sodipodi:cx="1080"
         id="path4120-9-2"
         style="fill:#c83737"
         sodipodi:type="arc" />
      <path
         transform="matrix(0.5,0.50000045,-0.5,0.50000045,788.04724,60.314192)"
         d="m 1090,574.09448 c 0,5.52285 -4.4772,10 -10,10 -5.5228,0 -10,-4.47715 -10,-10 0,-5.52285 4.4772,-10 10,-10 5.5228,0 10,4.47715 10,10 z"
         sodipodi:ry="10"
         sodipodi:rx="10"
         sodipodi:cy="574.09448"
         sodipodi:cx="1080"
         id="path4120-9-6"
         style="fill:#c83737"
         sodipodi:type="arc" />
      <path
         transform="matrix(0.5,0.50000045,-0.5,0.50000045,774.04721,60.3142)"
         d="m 1090,574.09448 c 0,5.52285 -4.4772,10 -10,10 -5.5228,0 -10,-4.47715 -10,-10 0,-5.52285 4.4772,-10 10,-10 5.5228,0 10,4.47715 10,10 z"
         sodipodi:ry="10"
         sodipodi:rx="10"
         sodipodi:cy="574.09448"
         sodipodi:cx="1080"
         id="path4120-9-4"
         style="fill:#c83737"
         sodipodi:type="arc" />
      <g
         id="g4232">
        <g
           id="g4225">
          <path
             transform="matrix(0.5,0.50000045,-0.5,0.50000045,784.04724,47.314197)"
             d="m 1090,574.09448 c 0,5.52285 -4.4772,10 -10,10 -5.5228,0 -10,-4.47715 -10,-10 0,-5.52285 4.4772,-10 10,-10 5.5228,0 10,4.47715 10,10 z"
             sodipodi:ry="10"
             sodipodi:rx="10"
             sodipodi:cy="574.09448"
             sodipodi:cx="1080"
             id="path4120-9-4-5"
             style="fill:#c83737"
             sodipodi:type="arc" />
          <path
             transform="matrix(0.5,0.50000045,-0.5,0.50000045,797.04724,47.314197)"
             d="m 1090,574.09448 c 0,5.52285 -4.4772,10 -10,10 -5.5228,0 -10,-4.47715 -10,-10 0,-5.52285 4.4772,-10 10,-10 5.5228,0 10,4.47715 10,10 z"
             sodipodi:ry="10"
             sodipodi:rx="10"
             sodipodi:cy="574.09448"
             sodipodi:cx="1080"
             id="path4120-9-4-0"
             style="fill:#c83737"
             sodipodi:type="arc" />
          <path
             transform="matrix(0.5,0.50000045,-0.5,0.50000045,811.04724,47.3142)"
             d="m 1090,574.09448 c 0,5.52285 -4.4772,10 -10,10 -5.5228,0 -10,-4.47715 -10,-10 0,-5.52285 4.4772,-10 10,-10 5.5228,0 10,4.47715 10,10 z"
             sodipodi:ry="10"
             sodipodi:rx="10"
             sodipodi:cy="574.09448"
             sodipodi:cx="1080"
             id="path4120-9-4-6"
             style="fill:#c83737"
             sodipodi:type="arc" />
          <path
             transform="matrix(0.5,0.50000045,-0.5,0.50000045,803.04724,35.314197)"
             d="m 1090,574.09448 c 0,5.52285 -4.4772,10 -10,10 -5.5228,0 -10,-4.47715 -10,-10 0,-5.52285 4.4772,-10 10,-10 5.5228,0 10,4.47715 10,10 z"
             sodipodi:ry="10"
             sodipodi:rx="10"
             sodipodi:cy="574.09448"
             sodipodi:cx="1080"
             id="path4120-9-4-02"
             style="fill:#c83737"
             sodipodi:type="arc" />
          <path
             transform="matrix(0.5,0.50000045,-0.5,0.50000045,789.04724,35.314197)"
             d="m 1090,574.09448 c 0,5.52285 -4.4772,10 -10,10 -5.5228,0 -10,-4.47715 -10,-10 0,-5.52285 4.4772,-10 10,-10 5.5228,0 10,4.47715 10,10 z"
             sodipodi:ry="10"
             sodipodi:rx="10"
             sodipodi:cy="574.09448"
             sodipodi:cx="1080"
             id="path4120-9-4-57"
             style="fill:#c83737"
             sodipodi:type="arc" />
        </g>
      </g>
    </g>
    <g
       id="g4284"
       transform="translate(295,-10)">
      <rect
         transform="translate(0,308.2677)"
         y="564.09448"
         x="1030"
         height="10"
         width="50"
         id="rect4257"
         style="fill:#222b00" />
      <path
         transform="translate(0,308.2677)"
         d="m 1040,579.09448 c 0,2.76143 -2.2386,5 -5,5 -2.7614,0 -5,-2.23857 -5,-5 0,-2.76142 2.2386,-5 5,-5 2.7614,0 5,2.23858 5,5 z"
         sodipodi:ry="5"
         sodipodi:rx="5"
         sodipodi:cy="579.09448"
         sodipodi:cx="1035"
         id="path4259"
         style="fill:#222b00"
         sodipodi:type="arc" />
      <path
         transform="translate(0,308.2677)"
         d="m 1080,579.09448 c 0,2.76143 -2.2386,5 -5,5 -2.7614,0 -5,-2.23857 -5,-5 0,-2.76142 2.2386,-5 5,-5 2.7614,0 5,2.23858 5,5 z"
         sodipodi:ry="5"
         sodipodi:rx="5"
         sodipodi:cy="579.09448"
         sodipodi:cx="1075"
         id="path4261"
         style="fill:#222b00"
         sodipodi:type="arc" />
      <rect
         transform="translate(0,308.2677)"
         y="544.09448"
         x="1030"
         height="20"
         width="10"
         id="rect4263"
         style="fill:#222b00" />
    </g>
  </g>
</svg>
