<?xml version="1.0" encoding="UTF-8" standalone="no"?>
<!-- Created with Inkscape (http://www.inkscape.org/) -->

<svg
   xmlns:dc="http://purl.org/dc/elements/1.1/"
   xmlns:cc="http://creativecommons.org/ns#"
   xmlns:rdf="http://www.w3.org/1999/02/22-rdf-syntax-ns#"
   xmlns:svg="http://www.w3.org/2000/svg"
   xmlns="http://www.w3.org/2000/svg"
   xmlns:sodipodi="http://sodipodi.sourceforge.net/DTD/sodipodi-0.dtd"
   xmlns:inkscape="http://www.inkscape.org/namespaces/inkscape"
   width="1500"
   height="900"
   id="svg2"
   version="1.1"
   inkscape:version="0.48.3.1 r9886"
   sodipodi:docname="ver1.svg">
  <defs
     id="defs4" />
  <sodipodi:namedview
     id="base"
     pagecolor="#ffffff"
     bordercolor="#666666"
     borderopacity="1.0"
     inkscape:pageopacity="0.0"
     inkscape:pageshadow="2"
     inkscape:zoom="0.66333333"
     inkscape:cx="750"
     inkscape:cy="450"
     inkscape:document-units="px"
     inkscape:current-layer="layer1"
     showgrid="true"
     width="1252px"
     inkscape:snap-center="false"
     inkscape:snap-grids="false"
     inkscape:snap-to-guides="false"
     inkscape:object-nodes="true"
     inkscape:snap-nodes="true"
     inkscape:window-width="1301"
     inkscape:window-height="744"
     inkscape:window-x="65"
     inkscape:window-y="24"
     inkscape:window-maximized="1">
    <inkscape:grid
       type="xygrid"
       id="grid3769"
       empspacing="5"
       visible="true"
       enabled="true"
       snapvisiblegridlinesonly="true" />
  </sodipodi:namedview>
  <metadata
     id="metadata7">
    <rdf:RDF>
      <cc:Work
         rdf:about="">
        <dc:format>image/svg+xml</dc:format>
        <dc:type
           rdf:resource="http://purl.org/dc/dcmitype/StillImage" />
        <dc:title />
      </cc:Work>
    </rdf:RDF>
  </metadata>
  <g
     inkscape:label="Layer 1"
     inkscape:groupmode="layer"
     id="layer1"
     transform="translate(0,-152.36218)">
    <path
       style="fill:none;stroke:#000000;stroke-width:1.15822041px;stroke-linecap:butt;stroke-linejoin:miter;stroke-opacity:1"
       d="m 621.36926,509.07154 c 164.98838,61.53805 164.98838,61.53805 164.98838,61.53805"
       id="path2993"
       inkscape:connector-curvature="0" />
    <path
       style="fill:none;stroke:#000000;stroke-width:0.98086023px;stroke-linecap:butt;stroke-linejoin:miter;stroke-opacity:1"
       d="m 688.30547,643.00818 c 0,0 0,0 115.59964,-56.8133 l 109.48326,-1.2218 0.61163,-0.6109"
       id="path2997"
       inkscape:connector-curvature="0" />
    <rect
       style="fill:#000080"
       id="rect3771"
       width="5"
       height="30"
       x="809"
       y="554.36218" />
    <rect
       style="fill:#000080"
       id="rect3771-2"
       width="5"
       height="30"
       x="824"
       y="554.36218" />
    <rect
       style="fill:#000080"
       id="rect3771-2-5"
       width="5"
       height="30"
       x="840"
       y="554.36218" />
    <rect
       style="fill:#000080"
       id="rect3771-2-5-0"
       width="5"
       height="30"
       x="854"
       y="554.36218" />
    <rect
       style="fill:#000080"
       id="rect3771-2-5-0-6"
       width="5"
       height="30"
       x="870"
       y="554.36218" />
    <path
       sodipodi:type="arc"
       style="fill:#ff0000"
       id="path3847"
       sodipodi:cx="60"
       sodipodi:cy="-15.905518"
       sodipodi:rx="10"
       sodipodi:ry="10"
       d="m 70,-15.905518 c 0,5.522848 -4.477153,10.0000004 -10,10.0000004 -5.522847,0 -10,-4.4771524 -10,-10.0000004 0,-5.522847 4.477153,-10 10,-10 5.522847,0 10,4.477153 10,10 z"
       transform="translate(574,520.2677)" />
    <path
       sodipodi:type="arc"
       style="fill:#008000"
       id="path3849"
       sodipodi:cx="320"
       sodipodi:cy="74.094482"
       sodipodi:rx="10"
       sodipodi:ry="10"
       d="m 330,74.094482 c 0,5.522848 -4.47715,10 -10,10 -5.52285,0 -10,-4.477152 -10,-10 0,-5.522847 4.47715,-10 10,-10 5.52285,0 10,4.477153 10,10 z"
       transform="translate(584,500.2677)" />
    <path
       style="fill:none;stroke:#000000;stroke-width:0.93446815px;stroke-linecap:butt;stroke-linejoin:miter;stroke-opacity:1"
       d="m 914,584.36218 c 172,132 172,132 172,132"
       id="path3851"
       inkscape:connector-curvature="0" />
    <path
       style="fill:none;stroke:#000000;stroke-width:1px;stroke-linecap:butt;stroke-linejoin:miter;stroke-opacity:1"
       d="m 1104,716.36218 c 90,0 90,0 90,0"
       id="path3865"
       inkscape:connector-curvature="0" />
    <rect
       style="fill:#000080"
       id="rect3771-7"
       width="5"
       height="30"
       x="1181"
       y="684.36218" />
    <path
       style="fill:none;stroke:#000000;stroke-width:0.70710677px;stroke-linecap:butt;stroke-linejoin:miter;stroke-opacity:1"
       d="m 1194,714.36218 0,-10 10,0"
       id="path3885"
       inkscape:connector-curvature="0" />
    <path
       style="fill:none;stroke:#000000;stroke-width:0.70710677px;stroke-linecap:butt;stroke-linejoin:miter;stroke-opacity:1"
       d="m 1204,704.36218 0,-10 10,0"
       id="path3885-8"
       inkscape:connector-curvature="0" />
    <path
       style="fill:none;stroke:#000000;stroke-width:0.70710671px;stroke-linecap:butt;stroke-linejoin:miter;stroke-opacity:1"
       d="m 1214,694.36218 0,-10 10,0"
       id="path3885-5"
       inkscape:connector-curvature="0" />
    <path
       style="fill:none;stroke:#000000;stroke-width:0.70710677px;stroke-linecap:butt;stroke-linejoin:miter;stroke-opacity:1"
       d="m 1224,684.36218 0,-10 10,0"
       id="path3885-7"
       inkscape:connector-curvature="0" />
    <rect
       style="fill:#000080"
       id="rect3771-7-1"
       width="5"
       height="30"
       x="1194"
       y="674.36218" />
    <rect
       style="fill:#000080"
       id="rect3771-7-17"
       width="5"
       height="30"
       x="1204"
       y="664.36218" />
    <rect
       style="fill:#000080"
       id="rect3771-7-1-7"
       width="5"
       height="30"
       x="1214"
       y="654.36218" />
    <path
       style="fill:none;stroke:#000000;stroke-width:0.70710677px;stroke-linecap:butt;stroke-linejoin:miter;stroke-opacity:1"
       d="m 1234,674.36218 0,-10 10,0"
       id="path3885-8-4"
       inkscape:connector-curvature="0" />
    <path
       style="fill:none;stroke:#000000;stroke-width:0.70710671px;stroke-linecap:butt;stroke-linejoin:miter;stroke-opacity:1"
       d="m 1244,664.36218 0,-10 10,0"
       id="path3885-5-7"
       inkscape:connector-curvature="0" />
    <rect
       style="fill:#000080"
       id="rect3771-7-1-1"
       width="5"
       height="30"
       x="1224"
       y="644.36218" />
    <rect
       style="fill:#000080"
       id="rect3771-7-17-2"
       width="5"
       height="30"
       x="1234"
       y="634.36218" />
    <rect
       style="fill:#000080"
       id="rect3771-7-6-1"
       width="5"
       height="30"
       x="1106"
       y="686.36218" />
    <rect
       style="fill:#000080"
       id="rect3771-7-6"
       width="5"
       height="30"
       x="1121"
       y="686.36218" />
    <rect
       style="fill:#000080"
       id="rect3771-7-6-5"
       width="5"
       height="30"
       x="1136"
       y="686.36218" />
    <rect
       style="fill:#000080"
       id="rect3771-7-6-8"
       width="5"
       height="30"
       x="1151"
       y="686.36218" />
    <rect
       style="fill:#000080"
       id="rect3771-7-6-3"
       width="5"
       height="30"
       x="1166"
       y="686.36218" />
    <rect
       style="fill:#008000"
       id="rect4101"
       width="190"
       height="10"
       x="1076"
       y="860.36218" />
    <path
       sodipodi:type="arc"
       style="fill:#000000"
       id="path4116"
       sodipodi:cx="955"
       sodipodi:cy="589.09448"
       sodipodi:rx="5"
       sodipodi:ry="5"
       d="m 960,589.09448 c 0,2.76143 -2.23858,5 -5,5 -2.76142,0 -5,-2.23857 -5,-5 0,-2.76142 2.23858,-5 5,-5 2.76142,0 5,2.23858 5,5 z"
       transform="translate(217,276.2677)" />
    <rect
       style="fill:#c83737"
       id="rect4125"
       width="30"
       height="10"
       x="1052"
       y="850.36218" />
    <path
       sodipodi:type="arc"
       style="fill:#222b00"
       id="path4127"
       sodipodi:cx="875"
       sodipodi:cy="579.09448"
       sodipodi:rx="5"
       sodipodi:ry="5"
       d="m 880,579.09448 c 0,2.76143 -2.23858,5 -5,5 -2.76142,0 -5,-2.23857 -5,-5 0,-2.76142 2.23858,-5 5,-5 2.76142,0 5,2.23858 5,5 z"
       transform="translate(182,276.2677)" />
    <g
       id="g4240"
       transform="matrix(0.84870328,0,0,0.72298132,551.40767,-367.49466)">
      <path
         transform="matrix(0.49999994,0.50000033,-0.49999994,0.50000033,802.04727,60.314396)"
         d="m 1090,574.09448 c 0,5.52285 -4.4772,10 -10,10 -5.5228,0 -10,-4.47715 -10,-10 0,-5.52285 4.4772,-10 10,-10 5.5228,0 10,4.47715 10,10 z"
         sodipodi:ry="10"
         sodipodi:rx="10"
         sodipodi:cy="574.09448"
         sodipodi:cx="1080"
         id="path4120-9"
         style="fill:#c83737"
         sodipodi:type="arc" />
      <path
         transform="matrix(0.5,0.50000045,-0.5,0.50000045,816.04724,60.314201)"
         d="m 1090,574.09448 c 0,5.52285 -4.4772,10 -10,10 -5.5228,0 -10,-4.47715 -10,-10 0,-5.52285 4.4772,-10 10,-10 5.5228,0 10,4.47715 10,10 z"
         sodipodi:ry="10"
         sodipodi:rx="10"
         sodipodi:cy="574.09448"
         sodipodi:cx="1080"
         id="path4120-9-2"
         style="fill:#c83737"
         sodipodi:type="arc" />
      <path
         transform="matrix(0.5,0.50000045,-0.5,0.50000045,788.04724,60.314192)"
         d="m 1090,574.09448 c 0,5.52285 -4.4772,10 -10,10 -5.5228,0 -10,-4.47715 -10,-10 0,-5.52285 4.4772,-10 10,-10 5.5228,0 10,4.47715 10,10 z"
         sodipodi:ry="10"
         sodipodi:rx="10"
         sodipodi:cy="574.09448"
         sodipodi:cx="1080"
         id="path4120-9-6"
         style="fill:#c83737"
         sodipodi:type="arc" />
      <path
         transform="matrix(0.5,0.50000045,-0.5,0.50000045,774.04721,60.3142)"
         d="m 1090,574.09448 c 0,5.52285 -4.4772,10 -10,10 -5.5228,0 -10,-4.47715 -10,-10 0,-5.52285 4.4772,-10 10,-10 5.5228,0 10,4.47715 10,10 z"
         sodipodi:ry="10"
         sodipodi:rx="10"
         sodipodi:cy="574.09448"
         sodipodi:cx="1080"
         id="path4120-9-4"
         style="fill:#c83737"
         sodipodi:type="arc" />
      <g
         id="g4232">
        <g
           id="g4225">
          <path
             transform="matrix(0.5,0.50000045,-0.5,0.50000045,784.04724,47.314197)"
             d="m 1090,574.09448 c 0,5.52285 -4.4772,10 -10,10 -5.5228,0 -10,-4.47715 -10,-10 0,-5.52285 4.4772,-10 10,-10 5.5228,0 10,4.47715 10,10 z"
             sodipodi:ry="10"
             sodipodi:rx="10"
             sodipodi:cy="574.09448"
             sodipodi:cx="1080"
             id="path4120-9-4-5"
             style="fill:#c83737"
             sodipodi:type="arc" />
          <path
             transform="matrix(0.5,0.50000045,-0.5,0.50000045,797.04724,47.314197)"
             d="m 1090,574.09448 c 0,5.52285 -4.4772,10 -10,10 -5.5228,0 -10,-4.47715 -10,-10 0,-5.52285 4.4772,-10 10,-10 5.5228,0 10,4.47715 10,10 z"
             sodipodi:ry="10"
             sodipodi:rx="10"
             sodipodi:cy="574.09448"
             sodipodi:cx="1080"
             id="path4120-9-4-0"
             style="fill:#c83737"
             sodipodi:type="arc" />
          <path
             transform="matrix(0.5,0.50000045,-0.5,0.50000045,811.04724,47.3142)"
             d="m 1090,574.09448 c 0,5.52285 -4.4772,10 -10,10 -5.5228,0 -10,-4.47715 -10,-10 0,-5.52285 4.4772,-10 10,-10 5.5228,0 10,4.47715 10,10 z"
             sodipodi:ry="10"
             sodipodi:rx="10"
             sodipodi:cy="574.09448"
             sodipodi:cx="1080"
             id="path4120-9-4-6"
             style="fill:#c83737"
             sodipodi:type="arc" />
          <path
             transform="matrix(0.5,0.50000045,-0.5,0.50000045,803.04724,35.314197)"
             d="m 1090,574.09448 c 0,5.52285 -4.4772,10 -10,10 -5.5228,0 -10,-4.47715 -10,-10 0,-5.52285 4.4772,-10 10,-10 5.5228,0 10,4.47715 10,10 z"
             sodipodi:ry="10"
             sodipodi:rx="10"
             sodipodi:cy="574.09448"
             sodipodi:cx="1080"
             id="path4120-9-4-02"
             style="fill:#c83737"
             sodipodi:type="arc" />
          <path
             transform="matrix(0.5,0.50000045,-0.5,0.50000045,789.04724,35.314197)"
             d="m 1090,574.09448 c 0,5.52285 -4.4772,10 -10,10 -5.5228,0 -10,-4.47715 -10,-10 0,-5.52285 4.4772,-10 10,-10 5.5228,0 10,4.47715 10,10 z"
             sodipodi:ry="10"
             sodipodi:rx="10"
             sodipodi:cy="574.09448"
             sodipodi:cx="1080"
             id="path4120-9-4-57"
             style="fill:#c83737"
             sodipodi:type="arc" />
        </g>
      </g>
    </g>
    <g
       id="g4284"
       transform="translate(236.67839,-487.64824)">
      <rect
         transform="translate(0,308.2677)"
         y="564.09448"
         x="1030"
         height="10"
         width="50"
         id="rect4257"
         style="fill:#222b00" />
      <path
         transform="translate(0,308.2677)"
         d="m 1040,579.09448 c 0,2.76143 -2.2386,5 -5,5 -2.7614,0 -5,-2.23857 -5,-5 0,-2.76142 2.2386,-5 5,-5 2.7614,0 5,2.23858 5,5 z"
         sodipodi:ry="5"
         sodipodi:rx="5"
         sodipodi:cy="579.09448"
         sodipodi:cx="1035"
         id="path4259"
         style="fill:#222b00"
         sodipodi:type="arc" />
      <path
         transform="translate(0,308.2677)"
         d="m 1080,579.09448 c 0,2.76143 -2.2386,5 -5,5 -2.7614,0 -5,-2.23857 -5,-5 0,-2.76142 2.2386,-5 5,-5 2.7614,0 5,2.23858 5,5 z"
         sodipodi:ry="5"
         sodipodi:rx="5"
         sodipodi:cy="579.09448"
         sodipodi:cx="1075"
         id="path4261"
         style="fill:#222b00"
         sodipodi:type="arc" />
      <rect
         transform="translate(0,308.2677)"
         y="544.09448"
         x="1030"
         height="20"
         width="10"
         id="rect4263"
         style="fill:#222b00" />
    </g>
    <rect
       style="fill:#0000ff;fill-rule:evenodd;stroke:#000000;stroke-width:1px;stroke-linecap:butt;stroke-linejoin:miter;stroke-opacity:1"
       id="rect3001"
       width="140"
       height="20"
       x="288"
       y="402.36218" />
    <path
       style="fill:none;stroke:#000000;stroke-width:1px;stroke-linecap:butt;stroke-linejoin:miter;stroke-opacity:1"
       d="m 128,422.36218 40,120 60,0 40,-120"
       id="path3005"
       inkscape:connector-curvature="0" />
    <path
       style="fill:none;stroke:#000000;stroke-width:1px;stroke-linecap:butt;stroke-linejoin:miter;stroke-opacity:1"
       d="m 108,622.36218 20,120 0,0 c 60,0 60,0 60,0"
       id="path3007"
       inkscape:connector-curvature="0" />
    <path
       style="fill:none;stroke:#000000;stroke-width:1px;stroke-linecap:butt;stroke-linejoin:miter;stroke-opacity:1"
       d="m 208,742.36218 60,0 20,-120"
       id="path3009"
       inkscape:connector-curvature="0" />
    <path
       style="fill:none;stroke:#000000;stroke-width:1px;stroke-linecap:butt;stroke-linejoin:miter;stroke-opacity:1"
       d="m 208,822.36218 c 80,0 80,0 80,0"
       id="path3013"
       inkscape:connector-curvature="0" />
    <path
       style="fill:none;stroke:#000000;stroke-width:1px;stroke-linecap:butt;stroke-linejoin:miter;stroke-opacity:1"
       d="m 128,862.36218 0,80.00002"
       id="path3015"
       inkscape:connector-curvature="0" />
    <path
       style="fill:none;stroke:#000000;stroke-width:1px;stroke-linecap:butt;stroke-linejoin:miter;stroke-opacity:1"
       d="m 248,862.36218 0,80.00002"
       id="path3017"
       inkscape:connector-curvature="0" />
    <path
       style="fill:none;stroke:#000000;stroke-width:10.05326748px;stroke-linecap:butt;stroke-linejoin:miter;stroke-opacity:1"
       d="m 376.55276,245.49095 0,155.62186"
       id="path3003"
       inkscape:connector-curvature="0" />
    <path
       style="fill:none;stroke:#000000;stroke-width:1.28979135px;stroke-linecap:butt;stroke-linejoin:miter;stroke-opacity:1"
       d="m 957.44113,346.36218 c -133.08495,0 -133.08495,0 -133.08495,0 L 658,446.36218"
       id="path2991"
       inkscape:connector-curvature="0" />
    <path
       style="fill:none;stroke:#000000;stroke-width:1px;stroke-linecap:butt;stroke-linejoin:miter;stroke-opacity:1"
       d="m 626,476.36218 -160,0 0,-40"
       id="path2993-0"
       inkscape:connector-curvature="0" />
    <path
       style="fill:none;stroke:#000000;stroke-width:0px;stroke-linecap:butt;stroke-linejoin:miter;stroke-opacity:1"
       d="m 948,280.36218 c 0,45 0,45 0,45 l 0,0 0,0"
       id="path2987"
       inkscape:connector-curvature="0" />
    <path
       sodipodi:type="arc"
       style="fill:#ff0000;fill-rule:evenodd;stroke:#000000;stroke-width:1px;stroke-linecap:butt;stroke-linejoin:miter;stroke-opacity:1"
       id="path2989"
       sodipodi:cx="1170"
       sodipodi:cy="70"
       sodipodi:rx="10"
       sodipodi:ry="10"
       d="m 1180,70 a 10,10 0 1 1 -20,0 10,10 0 1 1 20,0 z"
       transform="matrix(0,0,0,0.74999997,926,280.36218)" />
    <path
       style="fill:none;stroke:#000000;stroke-width:1.57416391px;stroke-linecap:butt;stroke-linejoin:miter;stroke-opacity:1"
       d="m 940.49246,172.58872 c 0,143.41794 0,143.41794 0,143.41794 l 0,0 0,0"
       id="path2987-0"
       inkscape:connector-curvature="0" />
    <path
       sodipodi:type="arc"
       style="fill:#ff0000;fill-rule:evenodd;stroke:#000000;stroke-width:1px;stroke-linecap:butt;stroke-linejoin:miter;stroke-opacity:1"
       id="path2989-3"
       sodipodi:cx="1170"
       sodipodi:cy="70"
       sodipodi:rx="10"
       sodipodi:ry="10"
       d="m 1180,70 a 10,10 0 1 1 -20,0 10,10 0 1 1 20,0 z"
       transform="matrix(1,0,0,0.99362336,-228,254.80854)" />
    <rect
       style="fill:#222b00"
       id="rect4403"
       width="84.522614"
       height="9.849246"
       x="900.49249"
       y="165.1662" />
    <path
       style="fill:none;stroke:#000000;stroke-width:1px;stroke-linecap:butt;stroke-linejoin:miter;stroke-opacity:1"
       d="m 640,652.36219 40,40"
       id="path3095"
       inkscape:connector-curvature="0" />
    <path
       style="fill:none;stroke:#000000;stroke-width:1px;stroke-linecap:butt;stroke-linejoin:miter;stroke-opacity:1"
       d="m 680,652.36219 -40,40"
       id="path3097"
       inkscape:connector-curvature="0" />
    <path
       sodipodi:type="star"
       style="fill:#ffff00;fill-rule:evenodd;stroke:#000000;stroke-width:1px;stroke-linecap:butt;stroke-linejoin:miter;stroke-opacity:1"
       id="path3347"
       sodipodi:sides="5"
       sodipodi:cx="607"
       sodipodi:cy="471"
       sodipodi:r1="34.014702"
       sodipodi:r2="6.6679816"
       sodipodi:arg1="1.541393"
       sodipodi:arg2="2.3236903"
       inkscape:flatsided="false"
       inkscape:rounded="0"
       inkscape:randomized="0"
       d="m 608,505 -5.55926,-29.13429 -27.46764,6.59193 25.99044,-14.29016 -14.75726,-24.08627 21.62224,20.30248 18.34716,-21.47805 -12.62717,26.83778 26.09643,10.8121 -29.42626,-3.71582 z"
       transform="translate(108,230.36219)"
       inkscape:transform-center-x="-0.30901699"
       inkscape:transform-center-y="2.9528185" />
    <path
       sodipodi:type="star"
       style="fill:#ffff00;fill-rule:evenodd;stroke:#000000;stroke-width:1px;stroke-linecap:butt;stroke-linejoin:miter;stroke-opacity:1"
       id="path3347-4"
       sodipodi:sides="5"
       sodipodi:cx="607"
       sodipodi:cy="471"
       sodipodi:r1="34.014702"
       sodipodi:r2="6.6679816"
       sodipodi:arg1="1.541393"
       sodipodi:arg2="2.3236903"
       inkscape:flatsided="false"
       inkscape:rounded="0"
       inkscape:randomized="0"
       d="m 608,505 -5.55926,-29.13429 -27.46764,6.59193 25.99044,-14.29016 -14.75726,-24.08627 21.62224,20.30248 18.34716,-21.47805 -12.62717,26.83778 26.09643,10.8121 -29.42626,-3.71582 z"
       transform="translate(192.69098,206.40937)"
       inkscape:transform-center-x="-0.30901699"
       inkscape:transform-center-y="2.9528185" />
    <path
       sodipodi:type="star"
       style="fill:#ffff00;fill-rule:evenodd;stroke:#000000;stroke-width:1px;stroke-linecap:butt;stroke-linejoin:miter;stroke-opacity:1"
       id="path3347-41"
       sodipodi:sides="5"
       sodipodi:cx="607"
       sodipodi:cy="471"
       sodipodi:r1="34.014702"
       sodipodi:r2="6.6679816"
       sodipodi:arg1="1.541393"
       sodipodi:arg2="2.3236903"
       inkscape:flatsided="false"
       inkscape:rounded="0"
       inkscape:randomized="0"
       d="m 608,505 -5.55926,-29.13429 -27.46764,6.59193 25.99044,-14.29016 -14.75726,-24.08627 21.62224,20.30248 18.34716,-21.47805 -12.62717,26.83778 26.09643,10.8121 -29.42626,-3.71582 z"
       transform="translate(143.69098,289.40937)"
       inkscape:transform-center-x="-0.30901699"
       inkscape:transform-center-y="2.9528185" />
    <path
       sodipodi:type="star"
       style="fill:#ffff00;fill-rule:evenodd;stroke:#000000;stroke-width:1px;stroke-linecap:butt;stroke-linejoin:miter;stroke-opacity:1"
       id="path3347-2"
       sodipodi:sides="5"
       sodipodi:cx="607"
       sodipodi:cy="471"
       sodipodi:r1="34.014702"
       sodipodi:r2="6.6679816"
       sodipodi:arg1="1.541393"
       sodipodi:arg2="2.3236903"
       inkscape:flatsided="false"
       inkscape:rounded="0"
       inkscape:randomized="0"
       d="m 608,505 -5.55926,-29.13429 -27.46764,6.59193 25.99044,-14.29016 -14.75726,-24.08627 21.62224,20.30248 18.34716,-21.47805 -12.62717,26.83778 26.09643,10.8121 -29.42626,-3.71582 z"
       transform="matrix(0.98566194,0,0,0.8723351,224.89862,324.9165)"
       inkscape:transform-center-x="-0.3045933"
       inkscape:transform-center-y="2.5758403" />
    <path
       style="fill:none;stroke:#000000;stroke-width:1px;stroke-linecap:butt;stroke-linejoin:miter;stroke-opacity:1"
       d="m 32.14214,907.47488 0,60.00002 100,0 0,60 100,0 0,-60 300,0"
       id="path3019"
       inkscape:connector-curvature="0" />
    <path
       sodipodi:type="arc"
       style="fill:#24221c"
       id="path4429"
       sodipodi:cx="770"
       sodipodi:cy="190"
       sodipodi:rx="10"
       sodipodi:ry="10"
       d="m 780,190 a 10,10 0 1 1 -20,0 10,10 0 1 1 20,0 z"
       transform="translate(60,146.36218)" />
    <path
       sodipodi:type="arc"
       style="fill:#24221c"
       id="path4453"
       sodipodi:cx="530"
       sodipodi:cy="330"
       sodipodi:rx="10"
       sodipodi:ry="10"
       d="m 540,330 a 10,10 0 1 1 -20,0 10,10 0 1 1 20,0 z"
       transform="matrix(-0.35678392,0,0,0.39698493,730.63317,345.38731)" />
    <path
       sodipodi:type="arc"
       style="fill:#24221c"
       id="path4455"
       sodipodi:cx="190"
       sodipodi:cy="330"
       sodipodi:rx="10"
       sodipodi:ry="10"
       d="m 200,330 a 10,10 0 1 1 -20,0 10,10 0 1 1 20,0 z"
       transform="matrix(0.6,0,0,0.54773869,86,297.0858)" />
    <path
       style="fill:none;stroke:#000000;stroke-width:1px;stroke-linecap:butt;stroke-linejoin:miter;stroke-opacity:1"
       d="m 1253,654.36218 c 90,0 90,0 90,0"
       id="path3865-9"
       inkscape:connector-curvature="0" />
    <rect
       style="fill:#000080"
       id="rect3771-7-6-1-4"
       width="5"
       height="30"
       x="1255"
       y="624.36218" />
    <rect
       style="fill:#000080"
       id="rect3771-7-6-9"
       width="5"
       height="30"
       x="1270"
       y="624.36218" />
    <rect
       style="fill:#000080"
       id="rect3771-7-6-5-8"
       width="5"
       height="30"
       x="1285"
       y="624.36218" />
    <rect
       style="fill:#000080"
       id="rect3771-7-6-8-2"
       width="5"
       height="30"
       x="1300"
       y="624.36218" />
    <path
       sodipodi:type="arc"
       style="fill:#808080"
       id="path3296"
       sodipodi:cx="1350.7538"
       sodipodi:cy="315.82913"
       sodipodi:rx="9.0452261"
       sodipodi:ry="9.798995"
       d="m 1359.799,315.82913 a 9.0452261,9.798995 0 1 1 -18.0904,0 9.0452261,9.798995 0 1 1 18.0904,0 z"
       transform="translate(-16,328.36218)" />
    <path
       style="fill:none;stroke:#000000;stroke-width:1px;stroke-linecap:butt;stroke-linejoin:miter;stroke-opacity:1"
       d="m 1380,600 c 100,0 100,0 100,0"
       id="path3301"
       inkscape:connector-curvature="0"
       transform="translate(0,152.36218)" />
    <rect
       style="fill:#808080"
       id="rect3308"
       width="9.0452261"
       height="46.733669"
       x="1426.1306"
       y="705.1059" />
    <rect
       style="fill:#c87137"
       id="rect3312"
       width="10.659902"
       height="6.3959408"
       x="1388.4521"
       y="588.7309"
       transform="translate(0,152.36218)" />
    <rect
       style="fill:#c87137"
       id="rect3314"
       width="19.720804"
       height="5.8629394"
       x="1384.4521"
       y="747.48901" />
    <path
       sodipodi:type="arc"
       style="fill:#ffff00"
       id="path3333"
       sodipodi:cx="1437.7542"
       sodipodi:cy="541.56079"
       sodipodi:rx="11.623535"
       sodipodi:ry="6.1294432"
       d="m 1449.3777,541.56079 a 11.623535,6.1294432 0 1 1 -0.1131,-0.85297"
       transform="matrix(0.0744699,0.99912646,-1.7804947,0.04178886,2287.8008,-748.23198)"
       sodipodi:start="0"
       sodipodi:end="6.1435732"
       sodipodi:open="true" />
    <path
       style="fill:none;stroke:#000000;stroke-width:1px;stroke-linecap:butt;stroke-linejoin:miter;stroke-opacity:1"
       d="m 1429.745,698.38923 c 0.255,-7.02705 -0.49,-7.0541 -0.49,-7.0541"
       id="path3337-4"
       inkscape:connector-curvature="0"
       sodipodi:nodetypes="cc" />
    <path
       style="fill:none;stroke:#000000;stroke-width:1px;stroke-linecap:butt;stroke-linejoin:miter;stroke-opacity:1"
       d="m 1420,550 c -5,-5 -5,-5 -5,-5"
       id="path3364"
       inkscape:connector-curvature="0"
       transform="translate(0,152.36218)" />
    <path
       style="fill:none;stroke:#000000;stroke-width:1px;stroke-linecap:butt;stroke-linejoin:miter;stroke-opacity:1"
       d="m 1420,717.36218 c -5,5 -5,5 -5,5"
       id="path3366"
       inkscape:connector-curvature="0" />
    <path
       style="fill:none;stroke:#000000;stroke-width:1.34164083px;stroke-linecap:butt;stroke-linejoin:miter;stroke-opacity:1"
       d="m 1410,710.36218 c 9,0 9,0 9,0 l 0,0"
       id="path3368"
       inkscape:connector-curvature="0" />
    <path
       style="fill:none;stroke:#000000;stroke-width:1.34164083px;stroke-linecap:butt;stroke-linejoin:miter;stroke-opacity:1"
       d="m 1441,710.36218 c 9,0 9,0 9,0 l 0,0"
       id="path3368-5"
       inkscape:connector-curvature="0" />
    <path
       style="fill:none;stroke:#000000;stroke-width:1px;stroke-linecap:butt;stroke-linejoin:miter;stroke-opacity:1"
       d="M 1495,540 z"
       id="path3392"
       inkscape:connector-curvature="0"
       transform="translate(0,152.36218)" />
    <path
       style="fill:none;stroke:#000000;stroke-width:1px;stroke-linecap:butt;stroke-linejoin:miter;stroke-opacity:1"
       d="m 1444,722.36218 c -5,-5 -5,-5 -5,-5"
       id="path3364-4"
       inkscape:connector-curvature="0" />
    <path
       style="fill:none;stroke:#000000;stroke-width:1px;stroke-linecap:butt;stroke-linejoin:miter;stroke-opacity:1"
       d="m 1444,696.36218 c -5,5 -5,5 -5,5"
       id="path3366-6"
       inkscape:connector-curvature="0" />
    <path
       sodipodi:type="arc"
       style="fill:#2b0000"
       id="path3849-8"
       sodipodi:cx="320"
       sodipodi:cy="74.094482"
       sodipodi:rx="10"
       sodipodi:ry="10"
       d="m 330,74.094482 a 10,10 0 1 1 -20,0 10,10 0 1 1 20,0 z"
       transform="translate(890,778.2677)" />
    <path
       sodipodi:type="arc"
       style="fill:#2b0000"
       id="path3849-86"
       sodipodi:cx="320"
       sodipodi:cy="74.094482"
       sodipodi:rx="10"
       sodipodi:ry="10"
       d="m 330,74.094482 a 10,10 0 1 1 -20,0 10,10 0 1 1 20,0 z"
       transform="translate(910,778.2677)" />
    <path
       sodipodi:type="arc"
       style="fill:#2b0000"
       id="path3849-0"
       sodipodi:cx="320"
       sodipodi:cy="74.094482"
       sodipodi:rx="10"
       sodipodi:ry="10"
       d="m 330,74.094482 a 10,10 0 1 1 -20,0 10,10 0 1 1 20,0 z"
       transform="translate(810,778.2677)" />
    <path
       sodipodi:type="arc"
       style="fill:#550000"
       id="path3849-3"
       sodipodi:cx="320"
       sodipodi:cy="74.094482"
       sodipodi:rx="10"
       sodipodi:ry="10"
       d="m 330,74.094482 a 10,10 0 1 1 -20,0 10,10 0 1 1 20,0 z"
       transform="translate(790,778.2677)" />
    <path
       sodipodi:type="arc"
       style="fill:#24221c"
       id="path4429-7"
       sodipodi:cx="770"
       sodipodi:cy="190"
       sodipodi:rx="10"
       sodipodi:ry="10"
       d="m 780,190 a 10,10 0 1 1 -20,0 10,10 0 1 1 20,0 z"
       transform="translate(80,146.36218)" />
    <path
       sodipodi:type="arc"
       style="fill:#24221c"
       id="path4429-0"
       sodipodi:cx="770"
       sodipodi:cy="190"
       sodipodi:rx="10"
       sodipodi:ry="10"
       d="m 780,190 a 10,10 0 1 1 -20,0 10,10 0 1 1 20,0 z"
       transform="translate(102,146.36218)" />
    <rect
       style="fill:#d45500"
       id="rect3094"
       width="4.522613"
       height="61.809044"
       x="662.81909"
       y="363.67542" />
    <rect
       style="fill:#d45500"
       id="rect3094-2"
       width="4.522613"
       height="61.809044"
       x="682.58795"
       y="332.48947" />
    <rect
       style="fill:#d45500"
       id="rect3094-0"
       width="4.522613"
       height="61.809044"
       x="702.82916"
       y="317.45432" />
    <rect
       style="fill:#d45500"
       id="rect3094-1"
       width="4.522613"
       height="61.809044"
       x="722.42712"
       y="298.00708" />
    <path
       style="fill:none;stroke:#000000;stroke-width:1px;stroke-linecap:butt;stroke-linejoin:miter;stroke-opacity:1"
       d="m 665.34168,363.67543 c 3e-5,-75.31658 1.50757,-70.79397 1.50757,-70.79397"
       id="path3128"
       inkscape:connector-curvature="0" />
    <path
       style="fill:none;stroke:#000000;stroke-width:1px;stroke-linecap:butt;stroke-linejoin:miter;stroke-opacity:1"
       d="m 685.23114,333.12856 c 3e-5,-75.31658 1.50757,-70.79397 1.50757,-70.79397"
       id="path3128-3"
       inkscape:connector-curvature="0" />
    <path
       style="fill:none;stroke:#000000;stroke-width:1px;stroke-linecap:butt;stroke-linejoin:miter;stroke-opacity:1"
       d="m 705.77386,318.02304 c 3e-5,-75.31658 1.50757,-70.79397 1.50757,-70.79397"
       id="path3128-8"
       inkscape:connector-curvature="0" />
    <path
       style="fill:none;stroke:#000000;stroke-width:1px;stroke-linecap:butt;stroke-linejoin:miter;stroke-opacity:1"
       d="m 723.99496,298.18384 c 3e-5,-75.31658 1.50757,-70.79397 1.50757,-70.79397"
       id="path3128-9"
       inkscape:connector-curvature="0" />
    <path
       style="fill:none;stroke:#000000;stroke-width:1.16496468px;stroke-linecap:butt;stroke-linejoin:miter;stroke-opacity:1"
       d="M 1061.7572,987.60169 C 971.28107,1107.6018 681.75723,927.60167 681.75723,927.60167 l 0,0 0,0"
       id="path3256"
       inkscape:connector-curvature="0" />
    <rect
       style="fill:#0000ff;fill-rule:evenodd;stroke:#000000;stroke-width:1.05902934px;stroke-linecap:butt;stroke-linejoin:miter;stroke-opacity:1"
       id="rect3266"
       width="237.53267"
       height="3.734292"
       x="664.02637"
       y="-1072.4166"
       transform="matrix(0.99378732,-0.11129583,0.24420316,-0.96972409,0,0)"
       inkscape:transform-center-y="-8.0205684"
       inkscape:transform-center-x="-2.0197991" />
    <rect
       style="fill:#0000ff;fill-rule:evenodd;stroke:#000000;stroke-width:0.84698099px;stroke-linecap:butt;stroke-linejoin:miter;stroke-opacity:1"
       id="rect3266-7"
       width="183.58273"
       height="3.0905168"
       x="1053.3402"
       y="-1032.2296"
       transform="matrix(0.99228593,0.12397029,0.67002883,-0.74233508,0,0)"
       inkscape:transform-center-y="-5.0813333"
       inkscape:transform-center-x="-4.5864771" />
    <rect
       style="fill:#0000ff;fill-rule:evenodd;stroke:#000000;stroke-width:0.90799475px;stroke-linecap:butt;stroke-linejoin:miter;stroke-opacity:1"
       id="rect3266-72-8"
       width="194.12865"
       height="3.3588662"
       x="670.14105"
       y="-944.61267"
       transform="matrix(0.99238515,-0.12317353,0.22157457,-0.97514343,0,0)"
       inkscape:transform-center-y="-7.2545386"
       inkscape:transform-center-x="-1.6484127" />
    <rect
       style="fill:#0000ff;fill-rule:evenodd;stroke:#000000;stroke-width:0.90799475px;stroke-linecap:butt;stroke-linejoin:miter;stroke-opacity:1"
       id="rect3266-72-0"
       width="194.12865"
       height="3.3588662"
       x="616.71729"
       y="-819.32129"
       transform="matrix(0.99238515,-0.12317353,0.22157457,-0.97514343,0,0)"
       inkscape:transform-center-y="-7.2545386"
       inkscape:transform-center-x="-1.6484127" />
    <rect
       style="fill:#0000ff;fill-rule:evenodd;stroke:#000000;stroke-width:0.90799475px;stroke-linecap:butt;stroke-linejoin:miter;stroke-opacity:1"
       id="rect3266-72-9"
       width="194.12865"
       height="3.3588662"
       x="521.10107"
       y="-661.14825"
       transform="matrix(0.99238515,-0.12317353,0.22157457,-0.97514343,0,0)"
       inkscape:transform-center-y="-7.2545386"
       inkscape:transform-center-x="-1.6484127" />
    <rect
       style="fill:#0000ff;fill-rule:evenodd;stroke:#000000;stroke-width:0.84698099px;stroke-linecap:butt;stroke-linejoin:miter;stroke-opacity:1"
       id="rect3266-7-0"
       width="183.58273"
       height="3.0905168"
       x="811.56061"
       y="-706.90961"
       transform="matrix(0.99228593,0.12397029,0.67002883,-0.74233508,0,0)"
       inkscape:transform-center-y="-5.0813333"
       inkscape:transform-center-x="-4.5864771" />
    <rect
       style="fill:#0000ff;fill-rule:evenodd;stroke:#000000;stroke-width:0.84698099px;stroke-linecap:butt;stroke-linejoin:miter;stroke-opacity:1"
       id="rect3266-7-4"
       width="183.58273"
       height="3.0905168"
       x="910.51813"
       y="-866.91693"
       transform="matrix(0.99228593,0.12397029,0.67002883,-0.74233508,0,0)"
       inkscape:transform-center-y="-5.0813333"
       inkscape:transform-center-x="-4.5864771" />
    <path
       sodipodi:type="arc"
       style="fill:#24221c"
       id="path4429-0-5"
       sodipodi:cx="770"
       sodipodi:cy="190"
       sodipodi:rx="10"
       sodipodi:ry="10"
       d="m 780,190 a 10,10 0 1 1 -20,0 10,10 0 1 1 20,0 z"
       transform="translate(125.54774,146.77424)" />
    <path
       sodipodi:type="arc"
       style="fill:#24221c"
       id="path4429-0-5-9"
       sodipodi:cx="770"
       sodipodi:cy="190"
       sodipodi:rx="10"
       sodipodi:ry="10"
       d="m 780,190 a 10,10 0 1 1 -20,0 10,10 0 1 1 20,0 z"
       transform="translate(151.35678,146.58329)" />
  </g>
</svg>
